<?xml version="1.0" encoding="UTF-8" standalone="no"?>
<!-- Created with Inkscape (http://www.inkscape.org/) -->

<svg
   width="12.657803mm"
   height="12.657803mm"
   viewBox="0 0 12.657802 12.657802"
   version="1.1"
   id="svg5"
   inkscape:version="1.2.2 (732a01da63, 2022-12-09)"
   sodipodi:docname="xp.svg"
   xmlns:inkscape="http://www.inkscape.org/namespaces/inkscape"
   xmlns:sodipodi="http://sodipodi.sourceforge.net/DTD/sodipodi-0.dtd"
   xmlns="http://www.w3.org/2000/svg"
   xmlns:svg="http://www.w3.org/2000/svg">
  <sodipodi:namedview
     id="namedview7"
     pagecolor="#ffffff"
     bordercolor="#666666"
     borderopacity="1.0"
     inkscape:showpageshadow="2"
     inkscape:pageopacity="0.0"
     inkscape:pagecheckerboard="0"
     inkscape:deskcolor="#d1d1d1"
     inkscape:document-units="mm"
     showgrid="false"
     inkscape:zoom="10.35098"
     inkscape:cx="24.973481"
     inkscape:cy="44.005496"
     inkscape:window-width="1396"
     inkscape:window-height="1230"
     inkscape:window-x="1042"
     inkscape:window-y="493"
     inkscape:window-maximized="0"
     inkscape:current-layer="layer1" />
  <defs
     id="defs2" />
  <g
     inkscape:label="Réteg 1"
     inkscape:groupmode="layer"
     id="layer1"
     transform="translate(-69.923843,-103.03247)">
    <g
       aria-label="XP"
       id="text236"
       style="font-size:10.5833px;line-height:1.25;stroke-width:0.264583">
      <path
         d="m 73.854973,109.30203 1.767329,2.13423 q 0.315225,0.005 0.470254,0.15503 0.160196,0.14469 0.160196,0.37723 0,0.23255 -0.165364,0.38241 -0.160196,0.14469 -0.542601,0.14469 h -1.193722 q -0.377236,0 -0.5426,-0.14469 -0.160197,-0.14986 -0.160197,-0.38757 0,-0.22221 0.149861,-0.36691 0.149862,-0.14986 0.449584,-0.16019 l -1.064531,-1.31258 -1.074867,1.31258 q 0.294555,0.0103 0.444416,0.16019 0.149861,0.14986 0.149861,0.37207 0,0.23255 -0.165364,0.38241 -0.160196,0.14469 -0.5426,0.14469 h -1.188555 q -0.382404,0 -0.547768,-0.14469 -0.160196,-0.14986 -0.160196,-0.38757 0,-0.22738 0.160196,-0.37724 0.160196,-0.14986 0.470254,-0.14986 l 1.756993,-2.14457 -1.674311,-1.99987 q -0.310058,-0.0103 -0.465086,-0.15503 -0.149862,-0.14986 -0.149862,-0.37723 0,-0.23772 0.160197,-0.38241 0.165364,-0.14986 0.547768,-0.14986 l 0.976682,0.005 q 0.382404,0 0.542601,0.14469 0.165364,0.14469 0.165364,0.38241 0,0.17569 -0.103353,0.32039 -0.06718,0.0879 -0.299722,0.21187 l 0.987016,1.18339 0.966347,-1.18339 q -0.232544,-0.12402 -0.299723,-0.21187 -0.103352,-0.1447 -0.103352,-0.32039 0,-0.23255 0.160196,-0.38241 0.165364,-0.14986 0.547769,-0.14986 l 0.971514,0.005 q 0.382404,0 0.5426,0.14469 0.165364,0.14469 0.165364,0.38241 0,0.22737 -0.160196,0.37723 -0.155029,0.14986 -0.454751,0.15503 z"
         style="font-weight:bold;font-family:'Courier New';-inkscape-font-specification:'Courier New Bold'"
         id="path402" />
      <path
         d="m 78.898577,110.34589 v 1.09037 h 1.069699 q 0.382404,0 0.5426,0.14986 0.165364,0.14469 0.165364,0.3824 0,0.23255 -0.165364,0.38241 -0.160196,0.14469 -0.5426,0.14469 h -2.294427 q -0.382404,0 -0.547768,-0.14469 -0.160197,-0.14986 -0.160197,-0.38757 0,-0.23255 0.165364,-0.37724 0.165365,-0.14986 0.542601,-0.14986 h 0.165364 v -4.14444 h -0.165364 q -0.382404,0 -0.547768,-0.14469 -0.160197,-0.14986 -0.160197,-0.38757 0,-0.23772 0.160197,-0.38241 0.165364,-0.14986 0.547768,-0.14986 l 2.43912,0.005 q 1.074867,0 1.700149,0.58911 0.630451,0.58394 0.630451,1.42626 0,0.46509 -0.211873,0.8785 -0.160196,0.31006 -0.537433,0.61495 -0.372069,0.29972 -0.764809,0.45475 -0.387572,0.14986 -1.028358,0.14986 z m 0,-1.05937 h 0.981849 q 0.692462,0 1.095537,-0.31005 0.408242,-0.31523 0.408242,-0.75448 0,-0.37207 -0.330728,-0.65112 -0.32556,-0.27905 -0.93534,-0.27905 h -1.21956 z"
         style="font-weight:bold;font-family:'Courier New';-inkscape-font-specification:'Courier New Bold'"
         id="path404" />
    </g>
  </g>
</svg>
